<mxfile host="app.diagrams.net" modified="2023-09-26T16:16:48.757Z" agent="Mozilla/5.0 (Windows NT 10.0; Win64; x64) AppleWebKit/537.36 (KHTML, like Gecko) Chrome/117.0.0.0 Safari/537.36" version="21.8.2" etag="tfQAdYIfZ9TTBU2aRQVO" type="github">
  <diagram name="Page-1" id="0F3q5WjLW5Ob3Ady8eCH">
    <mxGraphModel>
      <root>
        <mxCell id="0" />
        <mxCell id="1" parent="0" />
      </root>
    </mxGraphModel>
  </diagram>
</mxfile>
